<svg width="22" height="20" viewBox="0 0 22 20" fill="none" xmlns="http://www.w3.org/2000/svg">
<path d="M11.0011 1.81807C12.2163 0.750808 13.799 0.198124 15.4144 0.276937C17.0298 0.35575 18.5512 1.05988 19.6568 2.24037C20.7623 3.42085 21.3652 4.9851 21.3381 6.6022C21.3109 8.2193 20.6557 9.7624 19.5111 10.9051L14.2871 16.1301L11.0001 19.4151L3.72012 12.1361L2.49012 10.9041C1.34901 9.76066 0.696811 8.2186 0.671194 6.6034C0.645577 4.9882 1.24855 3.42624 2.35283 2.24722C3.4571 1.0682 4.97629 0.364367 6.58971 0.284296C8.20312 0.204225 9.78453 0.754178 11.0001 1.81807M14.2851 13.3031L18.0961 9.49107C18.4888 9.09842 18.8002 8.63227 19.0127 8.11925C19.2252 7.60622 19.3346 7.05636 19.3346 6.50107C19.3346 5.94578 19.2252 5.39592 19.0127 4.88289C18.8002 4.36987 18.4888 3.90372 18.0961 3.51107C17.7035 3.11842 17.2373 2.80695 16.7243 2.59445C16.2113 2.38194 15.6614 2.27257 15.1061 2.27257C14.5508 2.27257 14.001 2.38194 13.4879 2.59445C12.9749 2.80695 12.5088 3.11842 12.1161 3.51107L11.0001 4.62707L9.88312 3.51007C9.09013 2.71707 8.01459 2.27157 6.89312 2.27157C5.77166 2.27157 4.69612 2.71707 3.90312 3.51007C3.11013 4.30307 2.66462 5.3786 2.66462 6.50007C2.66462 7.62154 3.11013 8.69707 3.90312 9.49007L5.13512 10.7221L11.0001 16.5871L14.2851 13.3021" fill="black"/>
</svg>
